# xmcd
#
# Track frame offsets:
#	150
#	13015
#	26115
#	44195
#	55915
#	68682
#	79502
#	94342
#	111777
#	124090
#
# Disc length: 1826 seconds
#
# Revision: 4
# Processed by: cddbd v1.5.2PL0 Copyright (c) Steve Scherf et al.
# Submitted via: EZCDAudioConverter 6.0.5.1
#
DISCID=8507200a
DTITLE=Hank Williams Sr and Jr. - The Best of Hank and Hank
DYEAR=1992
DGENRE=Country
TTITLE0=Hank Williams, Sr. and Hank Williams, Jr. - There's A Tear In My Beer
TTITLE1=Hank Williams, Sr. - Jambalaya (On The Bayou)
TTITLE2=Hank Williams, Jr. - Family Tradition
TTITLE3=Hank Williams, Sr. - Kaw-Liga
TTITLE4=Hank Williams, Jr. - Your Cheatin' Heart
TTITLE5=Hank Williams, Sr. - Why Don't You Love Me
TTITLE6=Hank Williams, Jr. - You Win Again
TTITLE7=Hank Williams, Jr. - The Conversation
TTITLE8=Hank Williams, Jr. - Hank
TTITLE9=Hank Williams, Jr. - If You Don't Like Hank Williams
EXTD=
EXTT0=
EXTT1=
EXTT2=
EXTT3=
EXTT4=
EXTT5=
EXTT6=
EXTT7=
EXTT8=
EXTT9=
PLAYORDER=
